<svg width="25" height="25" viewBox="0 0 30 30" fill="none" xmlns="http://www.w3.org/2000/svg">
<path d="M15.0491 5.98173C15.8686 5.95417 16.5103 5.2823 16.482 4.48107C16.4539 3.67984 15.7667 3.05265 14.947 3.08021L15.0491 5.98173ZM6.00594 14.1523L4.52168 14.1968C4.52222 14.2138 4.52305 14.2308 4.5242 14.2479L6.00594 14.1523ZM3.47126 20.7658L4.44066 21.8654C4.46722 21.8431 4.49295 21.8199 4.51782 21.7957L3.47126 20.7658ZM2.60255 21.4684L3.47484 22.6432C3.49936 22.6258 3.52331 22.6076 3.5467 22.5888L2.60255 21.4684ZM11.1371 26.129C11.9572 26.129 12.6221 25.4791 12.6221 24.6774C12.6221 23.8757 11.9572 23.2258 11.1371 23.2258V26.129ZM15.0491 3.08021C14.2294 3.05265 13.5422 3.67984 13.5139 4.48107C13.4857 5.2823 14.1273 5.95417 14.947 5.98173L15.0491 3.08021ZM23.99 14.1523L25.4718 14.2477C25.473 14.2306 25.4738 14.2138 25.4744 14.1968L23.99 14.1523ZM26.5247 20.7639L25.4781 21.7937C25.5031 21.8177 25.5288 21.8412 25.5553 21.8634L26.5247 20.7639ZM27.3935 21.4665L26.4493 22.5869C26.4723 22.6053 26.4956 22.6231 26.5196 22.6401L27.3935 21.4665ZM18.8589 23.2258C18.0388 23.2258 17.374 23.8757 17.374 24.6774C17.374 25.4791 18.0388 26.129 18.8589 26.129V23.2258ZM13.5131 4.53097C13.5131 5.33266 14.1779 5.98258 14.998 5.98258C15.8181 5.98258 16.483 5.33266 16.483 4.53097H13.5131ZM16.483 1.45161C16.483 0.649916 15.8181 0 14.998 0C14.1779 0 13.5131 0.649916 13.5131 1.45161H16.483ZM11.1371 23.2258C10.317 23.2258 9.65212 23.8757 9.65212 24.6774C9.65212 25.4791 10.317 26.129 11.1371 26.129V23.2258ZM18.8589 26.129C19.679 26.129 20.3439 25.4791 20.3439 24.6774C20.3439 23.8757 19.679 23.2258 18.8589 23.2258V26.129ZM12.6221 24.6774C12.6221 23.8757 11.9572 23.2258 11.1371 23.2258C10.317 23.2258 9.65212 23.8757 9.65212 24.6774H12.6221ZM20.3439 24.6774C20.3439 23.8757 19.679 23.2258 18.8589 23.2258C18.0388 23.2258 17.374 23.8757 17.374 24.6774H20.3439ZM14.947 3.08021C8.96385 3.28138 4.33616 8.28776 4.52168 14.1968L7.49021 14.1077C7.3527 9.72799 10.7708 6.12557 15.0491 5.98173L14.947 3.08021ZM4.5242 14.2479C4.66325 16.3061 3.88984 18.3132 2.4247 19.7359L4.51782 21.7957C6.60147 19.7721 7.68252 16.9405 7.48767 14.0566L4.5242 14.2479ZM2.50185 19.6663C2.19161 19.9275 1.93085 20.1286 1.65839 20.3479L3.5467 22.5888C3.76457 22.4133 4.09839 22.1537 4.44066 21.8654L2.50185 19.6663ZM1.73027 20.2935C1.29614 20.6017 0.901656 21.0418 0.607593 21.5065C0.317173 21.9652 0.0393069 22.5828 0.00370732 23.2661C-0.0352384 24.0134 0.228095 24.8444 1.01039 25.4292C1.71027 25.9525 2.63251 26.129 3.60831 26.129V23.2258C3.28493 23.2258 3.07101 23.1948 2.93978 23.1621C2.80966 23.1298 2.78651 23.1021 2.81455 23.123C2.85086 23.1503 2.9047 23.208 2.9402 23.291C2.97243 23.3667 2.96966 23.4163 2.9698 23.4139C2.97007 23.4083 2.97401 23.3677 3.00229 23.2914C3.02991 23.2169 3.07343 23.1284 3.13314 23.0342C3.19252 22.9403 3.26006 22.853 3.32696 22.7803C3.39576 22.7052 3.44924 22.6612 3.47484 22.6432L1.73027 20.2935ZM3.60831 26.129H11.1371V23.2258H3.60831V26.129ZM14.947 5.98173C19.2252 6.12557 22.6432 9.72799 22.5058 14.1077L25.4744 14.1968C25.6599 8.28776 21.0321 3.28138 15.0491 3.08021L14.947 5.98173ZM22.5084 14.0568C22.3142 16.9401 23.3952 19.7708 25.4781 21.7937L27.5713 19.734C26.1066 18.3116 25.3332 16.3053 25.4718 14.2477L22.5084 14.0568ZM25.5553 21.8634C25.8977 22.1518 26.2315 22.4114 26.4493 22.5869L28.3376 20.346C28.0651 20.1267 27.8044 19.9256 27.4941 19.6643L25.5553 21.8634ZM26.5196 22.6401C26.5461 22.6589 26.6004 22.7036 26.6697 22.7793C26.7372 22.8528 26.8053 22.9405 26.8653 23.035C26.9255 23.1298 26.9694 23.2186 26.9973 23.2935C27.0259 23.3702 27.03 23.411 27.0302 23.4164C27.0304 23.4188 27.0274 23.3686 27.0599 23.2924C27.0956 23.2084 27.15 23.1503 27.1866 23.1228C27.2147 23.1017 27.1916 23.1294 27.0609 23.1619C26.929 23.1948 26.7142 23.2258 26.3897 23.2258V26.129C27.3664 26.129 28.2899 25.9527 28.9902 25.4294C29.774 24.8437 30.0366 24.011 29.996 23.2632C29.959 22.5795 29.6796 21.9623 29.3887 21.504C29.0941 21.0399 28.6997 20.6005 28.2673 20.2928L26.5196 22.6401ZM26.3897 23.2258H18.8589V26.129H26.3897V23.2258ZM16.483 4.53097V1.45161H13.5131V4.53097H16.483ZM11.1371 26.129H18.8589V23.2258H11.1371V26.129ZM9.65212 24.6774C9.65212 27.5822 12.0103 30 14.998 30V27.0968C13.721 27.0968 12.6221 26.0485 12.6221 24.6774H9.65212ZM14.998 30C17.9856 30 20.3439 27.5822 20.3439 24.6774H17.374C17.374 26.0485 16.2749 27.0968 14.998 27.0968V30Z" fill="#4E4E50"/>
</svg>
