<svg width="30" height="30" viewBox="0 0 30 30" fill="none" xmlns="http://www.w3.org/2000/svg">
<path opacity="0.5" d="M27 15C27 11.3797 26.9934 8.9659 26.752 7.16992C26.5508 5.67385 26.2251 4.95542 25.8467 4.49902L25.6816 4.31836C25.2337 3.8704 24.5396 3.47792 22.8301 3.24805C21.0341 3.00658 18.6203 3 15 3C11.3797 3 8.96591 3.00658 7.16992 3.24805C5.67436 3.44915 4.95545 3.77406 4.49902 4.15234L4.31836 4.31836C3.87035 4.76637 3.47791 5.46046 3.24805 7.16992C3.00658 8.96591 3 11.3797 3 15C3 18.6203 3.00658 21.0341 3.24805 22.8301C3.47792 24.5396 3.8704 25.2337 4.31836 25.6816L4.49902 25.8467C4.95542 26.2251 5.67385 26.5508 7.16992 26.752C8.9659 26.9934 11.3797 27 15 27V30C8.14973 30 4.61742 30.0002 2.40625 28.0029L2.19629 27.8037C-0.00041604 25.6071 0 22.071 0 15C0 8.14971 -0.000225306 4.61742 1.99707 2.40625L2.19629 2.19629C4.39298 -0.00041604 7.92893 0 15 0C22.071 0 25.6071 -0.00041604 27.8037 2.19629C30.0004 4.39298 30 7.92895 30 15C30 22.071 30.0005 25.6071 27.8037 27.8037L27.5938 28.0029C25.3827 30.0003 21.8502 30 15 30V27C18.6203 27 21.0341 26.9934 22.8301 26.752C24.5395 26.5221 25.2337 26.1296 25.6816 25.6816L25.8477 25.501C26.2259 25.0446 26.5508 24.3257 26.752 22.8301C26.9934 21.0341 27 18.6203 27 15Z" fill="#FF0000"/>
<path opacity="0.5" d="M20.6899 10.338C21.1034 10.7886 21.1034 11.5191 20.6899 11.9697L13.631 19.662C13.2175 20.1127 12.5472 20.1127 12.1337 19.662L9.31012 16.5851C8.89663 16.1345 8.89663 15.404 9.31012 14.9534C9.72361 14.5028 10.394 14.5028 10.8075 14.9534L12.8824 17.2143L19.1925 10.338C19.6061 9.88735 20.2764 9.88735 20.6899 10.338Z" fill="#FF0000"/>
</svg>
